<?xml version="1.0" encoding="utf-8"?>
<!-- Generator: Adobe Illustrator 25.4.1, SVG Export Plug-In . SVG Version: 6.00 Build 0)  -->
<svg version="1.1" id="Calque_1" xmlns="http://www.w3.org/2000/svg" xmlns:xlink="http://www.w3.org/1999/xlink" x="0px" y="0px"
	 viewBox="0 0 416.5 504" style="enable-background:new 0 0 416.5 504;" xml:space="preserve">
<style type="text/css">
	.st0{fill:#FFFFFF;}
</style>
<g>
	<path class="st0" d="M411.3,20.5C370.6,0,207.9,0,207.9,0S45.7,0,5.1,20.5c0,0-11.6,217.9,0,313.3c6.9,57.1,78.3,106.8,134.3,137.6
		c15.5,8.5,29.9,15.6,41.4,20.9c16.4,7.6,27,11.8,27,11.8s0.5-0.2,1.4-0.6c5.3-2.1,24.9-10.3,50-23C317,451,403.6,396.8,411.3,333.7
		C422.9,238.4,411.3,20.5,411.3,20.5L411.3,20.5z M95.8,308.5c0,0-2.4,53.9-7.2,80.2c-1.6,8.8,0.3,17.6,3.5,25.4
		c-33.3-24.9-61.9-55.4-65.9-88.8c-1.4-11.5-2.4-25-3.1-39.8c3.5,4.1,8.4,7.8,15.3,9.9c0,0-7.2-31.1,4.8-28.7
		c0,0,15.6-3.6,21.5-14.4C64.7,252.2,99.3,264.2,95.8,308.5L95.8,308.5z M264.8,451.2C264.8,451.1,264.8,451.1,264.8,451.2
		c0.1-4.1-0.8-8-2.5-11.6c-2.9-6.2-9.2-18.8-14-24.3c-1.5-1.7-2.5-3.8-2.4-6c0.2-6.8,2.6-21.3,17.5-36.1c0,0,39.5-33.5,35.9-51.5
		c0,0,18-3.6,22.7,1.2c0,0,19.2-2.4,27.6,0c8.3,2.4,26.3,15.6,31.1,13.1c0,0,3,1.3,6.8,2.3C372.6,385.6,311.6,426.1,264.8,451.2
		L264.8,451.2z M392.9,294.8c-3.2-2.6-7.6-4.3-13.6-4.3c-16.7,0-16.7,2.4-29.9,2.4c-13.2,0-25.1-6-25.1-6s24.5-31.1,19.8-53.7
		c-0.4-1.7-0.4-3.5,0.2-5.2c1.8-5.5,6.6-17.9,15.1-23c2.6-1.6,4.6-4,4.9-7.1c1.2-11.5,4.9-34.4,10.3-37.8c0,0,4.2-10.5,2.4-14.4
		c-2.2-4.7-4.2-13.1-16.8-8.4c-2.9,1.1-19.2,13.8-22.1,18.7c-3.5,6-7.8,14.5-7.8,19.6c0,0-1.8,6.1-0.3,15.8
		c0.2,1.1-17.7,48.8-28.5,51.2c0,0-18-32.3-31.1-35.9c0,0-15.5-1.2-19.1-4.8c0,0,11.9-9.6,25.1-6c0,0,1.2-25.1,7.1-25.1
		c0,0-17.9-1.2-26.3,2.4c0,0-25.1-7.2-3.6-25.1c0,0,7.2,3.6,12,3.6c0,0,4.8,7.2,4.8,12c0,0,6,0,6-2.4l2.4,2.4c0,0,7.2-9.6,7.2-14.4
		c0,0,14.4-18,12.6-25.7c0,0-13.2-9.6-29.9-9.6c0,0-4.8-14.3-23.9-17.9c0,0-21.5-16.8-27.5-16.8l6,6c0,0-43.7-13.8-52-3
		c0,0,18,3.6,18,9.6c0,0-28.7-7.2-35.9,4.8c0,0,9.6-2.4,11.9,0c0,0-34.7,14.4-37.1,22.7c0,0,6-2.4,8.4,0c0,0-9.6,8.4-9.6,12
		c0,0,6-2.4,6,0c0,0-18,20.3-15.6,28.7c0,0,3.6-6,12-6c0,0-6,19.2-15.6,25.1c0,0,6,0,9.6-3.6c0,0-7.2,23.9-26.3,28.7
		c0,0,4.8,2.4,10.8,2.4c0,0,10.8,4.8,10.8,10.8c0,0,13.1-4.8,16.7-2.4c0,0,4.8,31.1,15.6,31.1c0,0,8.3,27.5,16.7,31.1
		c0,0,2.4,20.3,6,23.9c0,0,2.4,47.9-6,56.3c0,0-34.2,36.4-37,63.7c-0.2,2-1.9,3.3-3.9,3.1c-3.7-0.5-9.1-1.9-10.7-5.7
		c0,0-14.3-20.3-9.6-46.7c0,0,5.9-35.3,4.3-57.1c-0.3-4-0.5-7.9-0.6-11.9c-0.3-12.8-4.8-44.5-39.6-61.4c0,0-15.6-17.9-33.5-11.9
		c-6.9,2.3-11.9,7.6-15.4,13.4c-1.3-90.5,4.5-198.5,4.5-198.5C62.5,26.1,208,26.1,208,26.1s145.9,0,182.3,18.3
		C390.3,44.4,398.6,200.6,392.9,294.8L392.9,294.8z"/>
</g>
</svg>
