<?xml version="1.0" encoding="utf-8"?>
<!-- Generator: Adobe Illustrator 25.4.1, SVG Export Plug-In . SVG Version: 6.00 Build 0)  -->
<svg version="1.1" id="Calque_1" xmlns="http://www.w3.org/2000/svg" xmlns:xlink="http://www.w3.org/1999/xlink" x="0px" y="0px"
	 viewBox="0 0 416.4 504" style="enable-background:new 0 0 416.4 504;" xml:space="preserve">
<style type="text/css">
	.st0{fill:#FFFFFF;}
</style>
<g>
	<path class="st0" d="M411.3,20.5C370.6,0,207.9,0,207.9,0S45.7,0,5.2,20.5c0,0-11.6,217.9,0,313.3c1.1,9.3,3.9,18.4,8.2,27.2
		C52.2,443,207.9,504,207.9,504s160.3-62.7,196.6-146.3c3.4-7.8,5.7-15.8,6.7-24C422.9,238.4,411.3,20.5,411.3,20.5L411.3,20.5z
		 M40.6,320.5c2.9-2.9,17.3-8.7,17.3-8.7H43.5c0,0,0-14.5,5.8-14.5c0,0-11.6-5.8-23.2,0c0,0,0-2.9,2.9-5.8l-5.8-1.9
		c-0.3-5.7-0.6-11.7-0.8-17.8c7.7,1,21.8,3.1,23.9,5.2c2.9,2.9-2.9-8.7-2.9-8.7s20.3,11.6,29,11.6c0,0-2.9,0-2.9-5.8h5.8l23.2,29
		v2.9c0,0-23.2,23.2-29,23.2H49.3C49.3,329.2,37.7,323.4,40.6,320.5L40.6,320.5z M289.7,419c-2.9,0,2.9-11.6,2.9-11.6
		c-2.9-2.9-26,0-26,0c0-2.9,2.9-8.7,2.9-8.7c-8.7-2.9-23.2,11.6-23.2,11.6c-8.7,2.9-11.6,0-26.1-2.9c-14.5-2.9-23.2-8.7-40.5-8.7
		c-17.3,0-34.7,5.8-34.7,5.8s-43.4-5.8-46.4-8.7c-2.9-2.9-2.9-5.8-2.9-5.8c5.8-2.9,11.6-2.9,11.6-2.9c-2.9-2.9-17.4-8.7-17.4-8.7
		c0-5.8,17.4-17.3,17.4-17.3c-17.4-2.9-37.7,8.7-37.7,8.7l-5.8-2.9l-2.9-8.7c2.9-5.8,52.1-8.7,52.1-8.7s-11.6-2.9-8.7-5.8
		c2.9-2.9,23.2,0,23.2,0l-2.9-5.8c2.9-5.8,20.3-5.8,20.3-5.8c8.7,29,110.1,49.2,139,49.2c29,0,23.2,8.7,26.1,17.3
		C312.8,407.4,289.7,419,289.7,419L289.7,419z M390.3,325.3c-2.6,21.5-15.5,41.9-33.3,60.4c-2.1-4.6-3.6-9.3-3.6-13
		c0-11.6,6.5-23.6,11.6-34.8c15.5-34.4,11.7-58.8-15.9-90.6c-23-26.4-88.3-24.8-108.6-33.5c-15.4-6.6-30.4-26.5-35.3-35.5
		c-2-3.6-2.5-8-0.9-11.8c1.4-3.4,4.1-6.1,7-8.6c11.8-10,36.8-13.2,44.3-13.9c1.5-0.2,2.8-0.8,3.8-1.8l5-5c1.3-1.3,2.1-3.1,2.1-5
		v-7.6c0-2.4-1.3-4.6-3.4-5.8l-26.2-14.3c-1.4-0.8-2.2-2.2-2.2-3.8v-0.5c0-1.7-0.9-3.3-2.3-4.2l-29.6-18.8c0,0-3.1-8.4-0.7-15.7
		c0.3-0.9-0.4-1.8-1.3-1.9c-4.9-0.3-17.2,0-20.6,9.8c-0.4,1.2-1.6,2.1-2.9,2.2c-6.3,0.7-23.6,2.9-28.3,6.6c-1.2,0.9-2.8,1.1-4.2,0.6
		c-5.4-2-16.6-5.1-23,1.3c-8.1,8.1-11.2,11.2-6.9,23.3c0.6,1.8,0.3,3.8-0.8,5.3c-8.1,11-36.5,49.3-46.6,70.5c-2.4,5-3.5,10.5-3.4,16
		c0.2,9.3-0.9,28.3-11.8,32.6c0,0-8.9,6.6-30.5,12.2c-1.1-89.9,4.5-195.7,4.5-195.7C62.5,26.1,208,26.1,208,26.1s145.9,0,182.3,18.3
		C390.3,44.4,400.7,239.8,390.3,325.3L390.3,325.3z"/>
</g>
</svg>
