<?xml version="1.0" encoding="utf-8"?>
<!-- Generator: Adobe Illustrator 25.4.1, SVG Export Plug-In . SVG Version: 6.00 Build 0)  -->
<svg version="1.1" id="Calque_1" xmlns="http://www.w3.org/2000/svg" xmlns:xlink="http://www.w3.org/1999/xlink" x="0px" y="0px"
	 viewBox="0 0 416.4 504" style="enable-background:new 0 0 416.4 504;" xml:space="preserve">
<style type="text/css">
	.st0{fill:#FFFFFF;}
</style>
<g>
	<path class="st0" d="M411.3,20.5C370.6,0,207.9,0,207.9,0S45.7,0,5.2,20.5c0,0-11.6,217.9,0,313.3c1.4,11.4,5.3,22.4,11.2,33.2
		C59.6,445.9,207.9,504,207.9,504s68.8-26.9,126.5-69c38.6-28.1,72.2-63.1,76.9-101.3C422.9,238.4,411.3,20.5,411.3,20.5L411.3,20.5
		z M213.5,349.9l-8.7,8.7c-10.8-1.3-13.4,3.6-13.1,9.2l-8.5,3.2l-7.5-3.7h-11.2l-0.2-0.2c-0.2-3.4-5.8-20-5.8-20l34.8-18.7
		c1.8-0.9,3.9-0.9,5.5,0.3c5,3.4,15.4,10.5,17.6,12.7C219.3,344.1,213.5,349.9,213.5,349.9L213.5,349.9z M352.3,390.4
		c-0.1,0.1-0.2,0.2-0.3,0.3c-11.3,10.9-24.2,21.2-37.6,30.4l-7.5-5.2h-33.7c0,0-7.5-11.2-15-18.7c-3.8-3.8-15.2-13.3-25.7-21.9
		c-0.2-6-7.4-16.8-7.4-16.8v-8.7c0,0,8.7-20.3,20.2-26c11.6-5.8,17.3,23.2,17.3,23.2l2.9-5.8c5.8,11.6,17.4,20.2,20.3,23.2
		c2.9,2.9,0,11.5,0,11.5s2.9-2.9,5.8-5.8c2.9-2.9,20.2,23.2,20.2,23.2v-14.5c6.4,6.4,11.2,14.4,13.3,18.1
		c-0.6-4.6,1.1-15.2,1.1-15.2s5.8,5.8,11.6,8.7c4.5,2.3,10.8,1,13.3,0.3c-3.4-0.5-9.4-12.2-1.7-14.8c5.7-1.9,8.9,2.4,12.1,4.8
		c-2.9,3.3-6.1,6.6-9.4,9.7C352.2,390.4,352.2,390.4,352.3,390.4L352.3,390.4z M390.3,325.3c-1.8,15.2-8.8,29.8-19,43.5
		C359.2,356.4,325.5,321,335,321c11.6,0,23.2-5.8,23.2-5.8s-14.5-2.9-5.8-5.8c0.5-0.2,0.9-0.3,1.3-0.4c3.4-1.1,4.3-5.7,1.3-7.6
		c-12.7-8.6-44-20.1-45.9-20.8c37.5,5.7,46.2-2.9,49.1-5.8c2.9-2.9-2.9-5.8-2.9-5.8c-37.6,8.7-63.6-8.7-63.6-8.7
		c17.3-2.9,26-11.6,26-11.6c-34.7,5.8-69.4-23.2-69.4-23.2c31.8,0,55-14.5,55-14.5c-17.3,0-26-5.8-26-5.8
		c31.8-2.9,69.4-28.9,69.4-28.9c-9.7,3.5-17.3,0-17.3,0c17.3-5.8,20.2-23.1,20.2-23.1c-5.1,7.9-34.7,17.3-34.7,17.3
		c-14.5,0-8.7-5.8-8.7-5.8c60.7-17.3,52.1-40.5,52.1-40.5c-2.9,8.7-5.8,5.8-5.8,5.8c2.9-8.7,0-14.5,0-14.5
		c-3.7,6.9-86.7,30.5-109.2,30.5c-14.8,0-67.3,24.4-67.3,24.4L158.5,159c0-72.3-69.4-31.8-69.4-31.8c-14.5,0-40.5,8.7-46.3,14.5
		c-5.8,5.8,1.4,13,1.4,13c17.3-17.3,52.1,8.7,52.1,8.7c-44.6,99.7,36.9,130.4,52.5,135.2c1.4,0.4,2.3,1.7,2.4,3.1
		c0.3,11,10.2,30.8,10.2,30.8L147,344.1h-8.7c-17.7-11.1-23.5-3.5-25.3,0.6h-8.5l-11.2,7.5c0,0,3.7,3.7-7.5,0
		c-11.2-3.7-22.5,0-22.5,0L39,359.8c-6.8-11.1-11.4-22.6-12.8-34.6c-10.5-85.5,0-280.9,0-280.9C62.5,26.1,208,26.1,208,26.1
		s145.9,0,182.3,18.3C390.3,44.4,400.7,239.8,390.3,325.3L390.3,325.3z"/>
</g>
</svg>
