<?xml version="1.0" encoding="utf-8"?>
<!-- Generator: Adobe Illustrator 25.4.1, SVG Export Plug-In . SVG Version: 6.00 Build 0)  -->
<svg version="1.1" id="Calque_1" xmlns="http://www.w3.org/2000/svg" xmlns:xlink="http://www.w3.org/1999/xlink" x="0px" y="0px"
	 viewBox="0 0 416.5 504" style="enable-background:new 0 0 416.5 504;" xml:space="preserve">
<style type="text/css">
	.st0{fill:#FFFFFF;}
</style>
<g>
	<path class="st0" d="M411.3,20.5C370.6,0,207.9,0,207.9,0S45.7,0,5.1,20.5c0,0-11.6,217.9,0,313.3c4.7,38.4,38.5,73.5,77.2,101.7
		c57.3,41.8,125.5,68.5,125.5,68.5s90.4-35.3,150.8-88.3c27.6-24.2,48.9-52.1,52.6-82C422.9,238.4,411.3,20.5,411.3,20.5L411.3,20.5
		z M390.3,325.3c-2.2,18.1-11.6,35.4-25.2,51.4c0.5-22.6-3.8-48.7-14.8-78.8c0,0-22.7-61-31.4-78.4c-11.2-22.4-27.1-45.2-27.1-54.4
		c0-9.2,5.8-29.1,9.8-34.6c2.8-3.9,10.8-14.4,7.8-17.5c-3.1-3.1-16.9,5.3-16.9,5.3c-0.5,0.5-48.7,24.4-24.4,73.1
		c24.4,48.7,36.6,76.1,33.5,79.1c0,0-73.1-29.4-106.5,7.1c-24.7,27-19.1,44.1-19.1,50.2c0,6.1,10,119.4,125.7,46.2
		c0,0-12.2,73.1-85.2,73.1c-73.1,0-73.1-70.1-73.1-70.1s1.9-62.8,34-106c46.4-62.7,57.6-90.7,57.8-103.5c0.6-36.5-5.8-48.8-5.8-48.8
		S216.3,66.5,160,80.3c0,0-42.6-6.1-64,33.5c0,0-42.6,30.4-21.3,51.7c0,0-1.5,7.6,1.6,10.7c3,3-3.1-9.2,3-9.2c0,0,9.2,3.1,15.2,0
		c6.1-3-9.2,6.1-6.1,12.2c0,0-13.8,0.5-19.6,6.3c-2.9,2.9,1.3,15.1-4.8,18.1c-6.1,3-15.2,15.2-12.2,21.3c0,0,6.6-10.7,12.2-13
		c0.9-0.3,1.8,0.3,1.8,1.2c0.1,3.1,1.2,10.1,10.4,14.8c-0.5-0.6-6.1-6.8-1.3-15.7c2.4-4.3,3.2-9.4,2.8-14.4
		c-0.1-1.2-0.2-2.4-0.2-3.7c0-6.1,10.9-8.8,10.9-8.8s21.3,30.4,73.1-27.4c0,0,12.2-3.1,18.2-12.2c0,0,9.2,39.6-42.6,97.4
		c0,0-65.6,70.8-60.4,158.9c-26.4-22.4-47.2-48.5-50.6-76.6c-10.4-85.5,0-280.9,0-280.9C62.5,26.1,208,26.1,208,26.1
		s145.9,0,182.3,18.3C390.3,44.4,400.7,239.8,390.3,325.3L390.3,325.3z M284.8,320.7c0,0-48.7,33.5-57.8,12.2
		c0,0-3.1-15.2,18.2-18.2C266.5,311.6,284.8,320.7,284.8,320.7L284.8,320.7z"/>
</g>
</svg>
